<svg id="ic_tabrek" xmlns="http://www.w3.org/2000/svg" width="185.182" height="302.626" viewBox="0 0 185.182 302.626">
  <path id="Path_43" data-name="Path 43" d="M362.792,374.874c.083.86.743,3.143.743,3.9.013,15.557.844,31.434.743,46.991-.064,9.783-8.614,19.09-17.468,21.208-1.7.407-4,0-5.76,0-36.727.027-73.282.034-110.01,0-11.168-.01-21.419-10.05-21.372-21.208,3.271,0,8.789-3.5,12.081-3.508,2.067,0,2.956,1.794,5.017,1.672,3.478-.206,4.387.692,4.274-2.6-.107-3.125.3-4.229-3.129-4.274-5.2-.068-12.864,0-18.244,0v-19.7c5.184,0,13.16-.677,18.244-.743,3.732-.049,2.227-.022,2.383-3.159.173-3.448-10.065-1.881-13.68-1.933-5.2-.075-.073-1.97-5.646-1.97,0-5.015-.135-11.2,0-15.981.014-.493,1.352-4.519,2.044-4.688,12.994-3.165,27.9-2.241,41.256-1.813,12.886.412,25.828,3.49,38.28,6.5,22.4,5.418,17.156,6.263,39.768,1.3C333.174,374.685,361.732,375.07,362.792,374.874Z" transform="translate(-186.947 -152.817)" fill="#4698dd"/>
  <path id="Path_44" data-name="Path 44" d="M407.034,356.207c-12.74,1.22-29.974.409-42.74-1.683.349-6.706,5.053-14.287,10.592-17.644a22.224,22.224,0,0,1,22.485,0C403.288,340.521,406.983,348.938,407.034,356.207Z" transform="translate(-250.515 -138.61)" fill="#4698dd"/>
  <path id="Path_45" data-name="Path 45" d="M343.937,47.136a13.672,13.672,0,0,1-13.795-13.971c.08-8,6.211-13.889,14.338-13.766a13.666,13.666,0,0,1,13.626,14.139A13.654,13.654,0,0,1,343.937,47.136Z" transform="translate(-236.129 -10.828)" fill="#4698dd"/>
  <path id="Path_46" data-name="Path 46" d="M301.03,103.274a8.827,8.827,0,0,1-17.652-.21,8.827,8.827,0,0,1,17.652.21Z" transform="translate(-215.509 -40.024)" fill="#4698dd"/>
  <path id="Path_47" data-name="Path 47" d="M389.356,110.3a7.131,7.131,0,0,1,7.087,7.241,7.3,7.3,0,0,1-7.149,6.87,7.5,7.5,0,0,1-7.176-8.02C382.273,112.774,385.3,110.229,389.356,110.3Z" transform="translate(-256.796 -47.411)" fill="#4698dd"/>
  <path id="Path_49" data-name="Path 49" d="M295.864,249.3a14.715,14.715,0,0,1,15.305-14.657,14.956,14.956,0,0,1-.514,29.906A14.946,14.946,0,0,1,295.864,249.3Z" transform="translate(-222.6 -99.36)" fill="#4698dd"/>
  <path id="Path_40" data-name="Path 40" d="M338.787,1.611c.811.288,1.611.616,2.434.86,10.851,3.213,17.241,13.15,15.908,24.757-1.183,10.3-10.078,18.56-20.73,19.25a22.49,22.49,0,0,1-7.171-44.187c.64-.174,1.251-.451,1.875-.68Zm-4.012,34.365a11.741,11.741,0,0,0,12.184-11.692,12.024,12.024,0,0,0-24.046-.321A11.756,11.756,0,0,0,334.775,35.976Z" transform="translate(-226.939 -1.611)" fill="#707070"/>
  <path id="Path_41" data-name="Path 41" d="M303.286,94.966a18.654,18.654,0,0,1-18.775,18.761c-10.544-.012-18.687-8.034-18.677-18.4a18.959,18.959,0,0,1,18.632-18.694A18.52,18.52,0,0,1,303.286,94.966Zm-10.356.57a8.364,8.364,0,0,0-16.726-.2,8.364,8.364,0,0,0,16.726.2Z" transform="translate(-207.871 -32.291)" fill="#707070"/>
  <path id="Path_42" data-name="Path 42" d="M379.819,92.579a16.181,16.181,0,1,1-15.994,16.27A16.131,16.131,0,0,1,379.819,92.579Zm.669,10.476c-3.28-.059-5.725,2-5.85,4.922a6.064,6.064,0,0,0,5.8,6.482,5.9,5.9,0,0,0,5.779-5.552A5.764,5.764,0,0,0,380.489,103.055Z" transform="translate(-247.943 -38.811)" fill="#707070"/>
  <path id="Path_48" data-name="Path 48" d="M300.976,262.876a22.839,22.839,0,0,1-22.92-22.838,22.993,22.993,0,1,1,22.92,22.838Zm-12.394-23.215a12.471,12.471,0,1,0,24.937.488,12.668,12.668,0,0,0-12.144-12.739A12.3,12.3,0,0,0,288.582,239.661Z" transform="translate(-212.87 -89.669)" fill="#707070"/>
  <path id="Path_39" data-name="Path 39" d="M204.552,369.589a5.3,5.3,0,0,0-.967-.569c-13.684-4.584-21.206-14.848-21.222-29.268q-.064-55.684-.02-111.368c0-12.9.062-25.8-.068-38.7a8.569,8.569,0,0,0-1.668-4.749c-3.5-4.63-7.228-9.092-10.936-13.563-1.707-2.058-2.5-4.229-1.377-6.793,1.168-2.655,3.391-3.162,6.074-3.16q85.667.052,171.335.02c5.413,0,7.245,1.839,7.245,7.263q.006,85.668,0,171.335c0,14.179-7.843,24.783-21.463,29.033a7.087,7.087,0,0,0-1.04.518Zm127.973-88.2c2.094-.4,4.009-.916,5.955-1.105,2.978-.29,3.663-1.8,3.653-4.676-.109-33.292-.073-66.585-.083-99.877,0-1.05-.086-2.1-.134-3.185h-158.3c2.235,2.711,4.078,5.129,6.119,7.365a9.107,9.107,0,0,1,2.534,6.966c-.162,3.409-.038,6.83-.038,10.422,1.319.065,2.28.15,3.242.154,4.333.02,8.669-.061,13,.044,3.75.091,5.734,2.662,5.017,6.334-.572,2.93-2.6,3.969-5.377,3.964-5.188-.009-10.377,0-15.645,0v15.76c5.544,0,10.854-.066,16.161.025,3.137.054,4.934,1.987,4.988,5.024.055,3.062-1.638,4.976-4.768,5.257-1.37.122-2.755.067-4.134.07-4.1.007-8.209,0-12.274,0v15.864c.3.151.38.231.464.231,5.119.044,10.238.05,15.355.131,3.39.054,5.253,1.841,5.353,4.982.1,3.286-1.732,5.215-5.263,5.375-2.163.1-4.333.032-6.5.034-3.112,0-6.224,0-9.389,0v16.127a155.157,155.157,0,0,1,80.9,2.742c3.872-16.868,14.775-26.671,29.318-26.751C317.751,252.576,327.707,262.078,332.525,281.384Zm9.768,8.535c-1.06.2-1.929.331-2.786.519a148.7,148.7,0,0,1-67.592-1.025c-12.452-3.012-24.834-5.972-37.72-6.384a146.319,146.319,0,0,0-39.538,3.793c-.692.168-1.767.9-1.781,1.391-.135,4.784-.081,9.574-.081,14.589,5.573,0,10.776-.055,15.977.019,3.615.052,5.519,2.126,5.347,5.575-.156,3.136-2.079,4.821-5.811,4.87-5.083.066-10.168.017-15.352.017v16.124c5.38,0,10.581-.05,15.78.018,3.431.046,5.278,1.827,5.385,4.952.113,3.294-1.7,5.284-5.182,5.49-2.062.122-4.134.044-6.2.047-3.292,0-6.583,0-9.855,0-.047,11.158,8.183,19.165,19.352,19.175q55.091.051,110.183-.009a22.869,22.869,0,0,0,5.267-.506c8.854-2.118,14.752-9.82,14.816-19.6.1-15.557.028-31.115.015-46.673C342.513,291.538,342.377,290.779,342.294,289.919Zm-20.09-7.042c-.051-7.268-2.921-12.886-8.838-16.527-6.711-4.13-13.752-3.66-20.375.352-5.539,3.356-8.421,8.473-8.771,15.18A145.981,145.981,0,0,0,322.2,282.877Z" transform="translate(-167.77 -66.963)" fill="#707070"/>
</svg>
